<?xml version="1.0" standalone="no"?>
<!DOCTYPE svg PUBLIC "-//W3C//DTD SVG 20010904//EN"
 "http://www.w3.org/TR/2001/REC-SVG-20010904/DTD/svg10.dtd">
<svg version="1.0" xmlns="http://www.w3.org/2000/svg"
 width="875.000000pt" height="875.000000pt" viewBox="0 0 875.000000 875.000000"
 preserveAspectRatio="xMidYMid meet">
<metadata>
Created by potrace 1.16, written by Peter Selinger 2001-2019
</metadata>
<g transform="translate(0.000000,875.000000) scale(0.100000,-0.100000)"
fill="#000000" stroke="none">
<path d="M3760 8234 c-317 -32 -599 -88 -822 -163 -369 -124 -613 -247 -870
-438 -116 -86 -333 -294 -421 -403 -189 -234 -328 -525 -382 -800 -26 -132
-32 -522 -11 -670 40 -273 148 -572 282 -778 98 -152 393 -424 593 -550 139
-86 473 -214 831 -318 215 -62 463 -103 1280 -209 268 -35 797 -116 1013 -156
121 -22 320 -77 408 -113 81 -33 249 -129 325 -187 l65 -49 771 0 771 0 -7 39
c-10 67 -86 282 -136 388 -188 396 -548 703 -1065 906 -223 87 -445 148 -755
206 -264 48 -418 72 -1050 156 -176 24 -797 122 -955 150 -234 43 -508 146
-656 246 -130 88 -227 215 -277 366 -22 67 -26 96 -26 203 -1 111 2 134 26
201 103 293 405 542 793 652 248 70 448 91 810 84 484 -9 754 -68 1076 -234
176 -91 363 -247 465 -389 111 -154 189 -391 203 -613 8 -139 12 -146 85 -156
22 -3 321 -5 664 -3 610 3 624 3 639 23 13 17 14 46 9 189 -14 350 -89 660
-231 951 -273 561 -792 1013 -1421 1239 -313 112 -601 177 -979 221 -201 23
-848 29 -1045 9z"/>
<path d="M1530 3260 c-60 -8 -92 -21 -128 -54 -44 -39 -52 -68 -52 -191 l0
-115 -115 0 -115 0 0 -70 0 -70 100 0 100 0 0 -400 0 -400 100 0 100 0 0 400
0 400 170 0 170 0 0 -405 0 -405 95 0 95 0 0 470 0 470 -261 0 -261 0 4 74 c5
106 21 121 134 131 l84 7 0 84 0 84 -82 -1 c-46 -1 -108 -5 -138 -9z"/>
<path d="M1860 3191 l0 -78 38 -7 c20 -3 61 -6 90 -6 l52 0 0 85 0 85 -90 0
-90 0 0 -79z"/>
<path d="M6741 3244 c-103 -28 -190 -82 -286 -178 -102 -103 -145 -174 -175
-292 -90 -351 142 -725 495 -799 222 -46 439 20 601 185 261 266 249 684 -28
934 -66 60 -182 125 -267 150 -70 20 -264 21 -340 0z"/>
<path d="M2216 1830 c-51 -16 -107 -62 -130 -109 -64 -126 -68 -342 -11 -469
46 -101 132 -149 251 -139 162 13 234 126 234 367 0 180 -43 282 -139 332 -42
22 -66 28 -115 27 -33 0 -74 -5 -90 -9z m133 -164 c35 -19 50 -52 61 -141 18
-139 -9 -235 -74 -270 -33 -18 -37 -18 -69 -3 -56 27 -81 91 -81 208 0 112 14
160 55 195 34 28 67 32 108 11z"/>
<path d="M2952 1784 c-97 -149 -752 -1248 -747 -1253 4 -3 39 -7 79 -9 65 -4
75 -2 99 19 15 13 174 265 355 559 446 727 432 704 419 712 -7 4 -50 8 -97 8
l-85 0 -23 -36z"/>
<path d="M5250 1165 l0 -655 650 0 650 0 0 655 0 655 -650 0 -650 0 0 -655z"/>
<path d="M4120 1794 c-111 -29 -199 -82 -291 -174 -70 -70 -94 -102 -127 -170
-49 -104 -62 -163 -62 -288 0 -185 58 -327 184 -455 123 -124 256 -185 426
-194 193 -11 357 52 495 191 128 128 195 286 195 461 0 293 -212 564 -492 630
-80 19 -256 18 -328 -1z m280 -170 c115 -26 226 -105 292 -207 85 -132 92
-332 16 -482 -27 -52 -122 -151 -176 -182 -185 -109 -430 -77 -582 76 -183
183 -185 472 -3 662 119 125 281 172 453 133z"/>
<path d="M2980 1221 c-144 -46 -197 -157 -188 -400 4 -113 6 -124 39 -188 27
-54 44 -73 83 -98 45 -27 57 -30 135 -30 75 0 92 3 132 27 93 55 129 151 129
343 0 194 -32 275 -125 319 -54 26 -163 40 -205 27z m129 -166 c43 -37 56 -84
56 -205 0 -139 -24 -185 -108 -205 -23 -6 -34 -1 -72 38 l-45 44 0 113 c0 131
12 182 53 216 37 31 78 31 116 -1z"/>
</g>
</svg>
