<?xml version="1.0" encoding="UTF-8"?>
<svg xmlns="http://www.w3.org/2000/svg" xmlns:xlink="http://www.w3.org/1999/xlink" width="20pt" height="20pt" viewBox="0 0 20 20" version="1.1">
<g id="surface1">
<path style=" stroke:none;fill-rule:nonzero;fill:rgb(0%,47.843137%,72.54902%);fill-opacity:1;" d="M 20 10 C 20 15.523438 15.523438 20 10 20 C 4.476562 20 0 15.523438 0 10 C 0 4.476562 4.476562 0 10 0 C 15.523438 0 20 4.476562 20 10 Z M 20 10 "/>
<path style=" stroke:none;fill-rule:nonzero;fill:rgb(94.509804%,94.901961%,94.901961%);fill-opacity:1;" d="M 15.976562 10.804688 L 15.976562 14.925781 L 13.585938 14.925781 L 13.585938 11.082031 C 13.585938 10.113281 13.238281 9.457031 12.375 9.457031 C 11.714844 9.457031 11.320312 9.898438 11.148438 10.328125 C 11.085938 10.484375 11.070312 10.695312 11.070312 10.910156 L 11.070312 14.925781 L 8.679688 14.925781 C 8.679688 14.925781 8.710938 8.414062 8.679688 7.738281 L 11.070312 7.738281 L 11.070312 8.757812 C 11.0625 8.765625 11.058594 8.773438 11.054688 8.78125 L 11.070312 8.78125 L 11.070312 8.757812 C 11.386719 8.269531 11.953125 7.570312 13.222656 7.570312 C 14.796875 7.570312 15.976562 8.597656 15.976562 10.804688 Z M 6.179688 4.273438 C 5.359375 4.273438 4.824219 4.808594 4.824219 5.515625 C 4.824219 6.203125 5.34375 6.757812 6.144531 6.757812 L 6.160156 6.757812 C 6.996094 6.757812 7.515625 6.203125 7.515625 5.515625 C 7.5 4.808594 6.996094 4.273438 6.179688 4.273438 Z M 4.96875 14.925781 L 7.355469 14.925781 L 7.355469 7.738281 L 4.96875 7.738281 Z M 4.96875 14.925781 "/>
</g>
</svg>
