<?xml version="1.0" encoding="UTF-8"?>
<svg xmlns="http://www.w3.org/2000/svg" xmlns:xlink="http://www.w3.org/1999/xlink" width="20pt" height="20pt" viewBox="0 0 20 20" version="1.1">
<g id="surface1">
<path style=" stroke:none;fill-rule:nonzero;fill:rgb(0%,0%,0%);fill-opacity:1;" d="M 8.59375 1.179688 C 7.867188 1.253906 7.222656 1.378906 6.714844 1.550781 C 5.871094 1.835938 5.3125 2.117188 4.726562 2.550781 C 4.460938 2.75 3.964844 3.222656 3.765625 3.472656 C 3.332031 4.007812 3.015625 4.671875 2.890625 5.300781 C 2.832031 5.601562 2.816406 6.496094 2.867188 6.832031 C 2.957031 7.457031 3.203125 8.140625 3.511719 8.609375 C 3.734375 8.957031 4.40625 9.578125 4.863281 9.867188 C 5.183594 10.0625 5.945312 10.355469 6.765625 10.59375 C 7.253906 10.734375 7.820312 10.828125 9.6875 11.070312 C 10.300781 11.152344 11.511719 11.335938 12.003906 11.429688 C 12.28125 11.480469 12.734375 11.605469 12.9375 11.6875 C 13.121094 11.761719 13.503906 11.980469 13.679688 12.113281 L 13.828125 12.226562 L 17.351562 12.226562 L 17.335938 12.136719 C 17.3125 11.984375 17.140625 11.492188 17.023438 11.25 C 16.59375 10.34375 15.773438 9.644531 14.589844 9.179688 C 14.082031 8.980469 13.574219 8.839844 12.867188 8.707031 C 12.261719 8.597656 11.910156 8.542969 10.464844 8.351562 C 10.0625 8.296875 8.644531 8.074219 8.285156 8.007812 C 7.75 7.910156 7.121094 7.675781 6.785156 7.449219 C 6.488281 7.246094 6.265625 6.957031 6.152344 6.609375 C 6.101562 6.457031 6.09375 6.390625 6.09375 6.148438 C 6.089844 5.894531 6.097656 5.839844 6.152344 5.6875 C 6.386719 5.019531 7.078125 4.449219 7.964844 4.199219 C 8.53125 4.039062 8.988281 3.988281 9.816406 4.007812 C 10.921875 4.027344 11.539062 4.160156 12.273438 4.539062 C 12.675781 4.75 13.101562 5.105469 13.335938 5.429688 C 13.589844 5.78125 13.769531 6.324219 13.800781 6.832031 C 13.820312 7.148438 13.828125 7.164062 13.996094 7.1875 C 14.042969 7.195312 14.726562 7.199219 15.511719 7.195312 C 16.90625 7.1875 16.9375 7.1875 16.972656 7.140625 C 17 7.101562 17.003906 7.035156 16.992188 6.710938 C 16.960938 5.910156 16.789062 5.199219 16.464844 4.535156 C 15.839844 3.253906 14.65625 2.222656 13.21875 1.703125 C 12.503906 1.449219 11.84375 1.300781 10.980469 1.199219 C 10.519531 1.148438 9.042969 1.132812 8.59375 1.179688 Z M 8.59375 1.179688 "/>
<path style=" stroke:none;fill-rule:nonzero;fill:rgb(0%,0%,0%);fill-opacity:1;" d="M 3.496094 12.546875 C 3.359375 12.5625 3.285156 12.59375 3.203125 12.667969 C 3.101562 12.757812 3.085938 12.824219 3.085938 13.105469 L 3.085938 13.367188 L 2.558594 13.367188 L 2.558594 13.6875 L 3.015625 13.6875 L 3.015625 15.515625 L 3.472656 15.515625 L 3.472656 13.6875 L 4.25 13.6875 L 4.25 15.539062 L 4.683594 15.539062 L 4.683594 13.390625 L 3.492188 13.390625 L 3.5 13.222656 C 3.511719 12.980469 3.550781 12.945312 3.808594 12.921875 L 4 12.90625 L 4 12.523438 L 3.8125 12.523438 C 3.707031 12.527344 3.566406 12.535156 3.496094 12.546875 Z M 3.496094 12.546875 "/>
<path style=" stroke:none;fill-rule:nonzero;fill:rgb(0%,0%,0%);fill-opacity:1;" d="M 4.25 12.703125 L 4.25 12.882812 L 4.335938 12.898438 C 4.382812 12.90625 4.476562 12.910156 4.542969 12.910156 L 4.660156 12.910156 L 4.660156 12.523438 L 4.25 12.523438 Z M 4.25 12.703125 "/>
<path style=" stroke:none;fill-rule:nonzero;fill:rgb(0%,0%,0%);fill-opacity:1;" d="M 15.40625 12.582031 C 15.167969 12.644531 14.96875 12.769531 14.75 12.988281 C 14.519531 13.222656 14.417969 13.386719 14.351562 13.65625 C 14.144531 14.457031 14.675781 15.3125 15.480469 15.480469 C 15.988281 15.585938 16.484375 15.4375 16.855469 15.058594 C 17.453125 14.453125 17.425781 13.496094 16.792969 12.925781 C 16.640625 12.789062 16.375 12.640625 16.179688 12.582031 C 16.019531 12.535156 15.578125 12.535156 15.40625 12.582031 Z M 15.40625 12.582031 "/>
<path style=" stroke:none;fill-rule:nonzero;fill:rgb(0%,0%,0%);fill-opacity:1;" d="M 5.0625 15.8125 C 4.949219 15.851562 4.820312 15.957031 4.765625 16.0625 C 4.621094 16.351562 4.613281 16.84375 4.742188 17.132812 C 4.847656 17.363281 5.042969 17.476562 5.316406 17.453125 C 5.6875 17.421875 5.851562 17.164062 5.851562 16.613281 C 5.851562 16.203125 5.75 15.96875 5.53125 15.855469 C 5.4375 15.804688 5.382812 15.789062 5.269531 15.792969 C 5.195312 15.792969 5.101562 15.804688 5.0625 15.8125 Z M 5.367188 16.1875 C 5.449219 16.230469 5.480469 16.308594 5.507812 16.511719 C 5.546875 16.828125 5.488281 17.046875 5.339844 17.128906 C 5.261719 17.167969 5.253906 17.167969 5.179688 17.132812 C 5.050781 17.074219 4.996094 16.925781 4.996094 16.660156 C 4.996094 16.402344 5.027344 16.292969 5.121094 16.214844 C 5.199219 16.148438 5.273438 16.140625 5.367188 16.1875 Z M 5.367188 16.1875 "/>
<path style=" stroke:none;fill-rule:nonzero;fill:rgb(0%,0%,0%);fill-opacity:1;" d="M 6.746094 15.917969 C 6.523438 16.257812 5.027344 18.769531 5.039062 18.78125 C 5.046875 18.789062 5.128906 18.796875 5.21875 18.800781 C 5.367188 18.8125 5.390625 18.808594 5.445312 18.757812 C 5.480469 18.730469 5.84375 18.152344 6.257812 17.480469 C 7.277344 15.820312 7.242188 15.871094 7.214844 15.855469 C 7.199219 15.84375 7.101562 15.835938 6.992188 15.835938 L 6.796875 15.835938 Z M 6.746094 15.917969 "/>
<path style=" stroke:none;fill-rule:nonzero;fill:rgb(0%,0%,0%);fill-opacity:1;" d="M 11.996094 17.332031 L 11.996094 18.828125 L 14.96875 18.828125 L 14.96875 15.835938 L 11.996094 15.835938 Z M 11.996094 17.332031 "/>
<path style=" stroke:none;fill-rule:nonzero;fill:rgb(0%,0%,0%);fill-opacity:1;" d="M 9.414062 15.894531 C 9.160156 15.960938 8.960938 16.082031 8.75 16.292969 C 8.589844 16.453125 8.535156 16.527344 8.460938 16.683594 C 8.347656 16.917969 8.316406 17.054688 8.316406 17.339844 C 8.316406 17.761719 8.449219 18.085938 8.738281 18.378906 C 9.019531 18.664062 9.324219 18.800781 9.710938 18.824219 C 10.152344 18.847656 10.527344 18.703125 10.84375 18.386719 C 11.136719 18.09375 11.289062 17.734375 11.289062 17.332031 C 11.289062 16.664062 10.804688 16.042969 10.164062 15.894531 C 9.980469 15.851562 9.578125 15.851562 9.414062 15.894531 Z M 10.054688 16.285156 C 10.316406 16.34375 10.570312 16.523438 10.722656 16.757812 C 10.917969 17.058594 10.933594 17.515625 10.757812 17.859375 C 10.695312 17.976562 10.480469 18.203125 10.355469 18.273438 C 9.933594 18.523438 9.375 18.449219 9.027344 18.101562 C 8.609375 17.683594 8.605469 17.023438 9.019531 16.589844 C 9.292969 16.300781 9.660156 16.195312 10.054688 16.285156 Z M 10.054688 16.285156 "/>
<path style=" stroke:none;fill-rule:nonzero;fill:rgb(0%,0%,0%);fill-opacity:1;" d="M 6.808594 17.207031 C 6.480469 17.308594 6.359375 17.5625 6.378906 18.121094 C 6.390625 18.378906 6.394531 18.402344 6.46875 18.550781 C 6.53125 18.671875 6.570312 18.714844 6.660156 18.773438 C 6.761719 18.835938 6.789062 18.839844 6.96875 18.839844 C 7.140625 18.839844 7.179688 18.835938 7.269531 18.78125 C 7.480469 18.652344 7.5625 18.433594 7.5625 17.996094 C 7.5625 17.550781 7.492188 17.367188 7.277344 17.265625 C 7.15625 17.207031 6.90625 17.175781 6.808594 17.207031 Z M 7.105469 17.585938 C 7.203125 17.667969 7.234375 17.777344 7.234375 18.054688 C 7.234375 18.371094 7.179688 18.476562 6.984375 18.519531 C 6.933594 18.535156 6.90625 18.523438 6.820312 18.433594 L 6.71875 18.335938 L 6.71875 18.074219 C 6.71875 17.777344 6.746094 17.660156 6.839844 17.582031 C 6.925781 17.511719 7.019531 17.511719 7.105469 17.585938 Z M 7.105469 17.585938 "/>
</g>
</svg>
